<svg id="Layer_1" data-name="Layer 1" xmlns="http://www.w3.org/2000/svg" viewBox="0 0 363.7684 527.3211"><path d="M40.63,411.68a5.1357,5.1357,0,1,0,5.1357-5.14,5.1323,5.1323,0,0,0-5.1357,5.14" style="fill:#fff"/><path d="M51.095,463.3351a5.1378,5.1378,0,1,0,5.1357,5.14,5.1332,5.1332,0,0,0-5.1357-5.14" style="fill:#fff"/><path d="M267.9611,463.3351a5.1378,5.1378,0,1,0,5.14,5.14,5.1358,5.1358,0,0,0-5.14-5.14" style="fill:#fff"/><path d="M281.5093,463.3351a5.1378,5.1378,0,1,0,5.1357,5.14,5.1393,5.1393,0,0,0-5.1357-5.14" style="fill:#fff"/><path d="M28.3646,411.68A5.1378,5.1378,0,1,0,33.5,406.54a5.1375,5.1375,0,0,0-5.1357,5.14" style="fill:#fff"/><path d="M107.925,411.6723a5.1377,5.1377,0,1,0,5.1357-5.1316,5.1365,5.1365,0,0,0-5.1357,5.1316" style="fill:#fff"/><path d="M121.5886,411.6723a5.1378,5.1378,0,1,0,5.14-5.1316,5.1375,5.1375,0,0,0-5.14,5.1316" style="fill:#fff"/><path d="M293.5514,416.8149a5.1378,5.1378,0,1,0-5.1357-5.1438,5.1364,5.1364,0,0,0,5.1357,5.1438" style="fill:#fff"/><path d="M311.6488,411.6723a5.1378,5.1378,0,1,0-5.1357,5.1439,5.1339,5.1339,0,0,0,5.1357-5.1439" style="fill:#fff"/><path d="M188.9347,411.6723a5.1377,5.1377,0,1,0,5.1357-5.1316,5.1366,5.1366,0,0,0-5.1357,5.1316" style="fill:#fff"/><path d="M207.0324,416.8149a5.1378,5.1378,0,1,0-5.14-5.1438,5.1365,5.1365,0,0,0,5.14,5.1438" style="fill:#fff"/><path d="M94.2573,411.6723a5.1377,5.1377,0,1,0,5.1357-5.1316,5.1366,5.1366,0,0,0-5.1357,5.1316" style="fill:#fff"/><path d="M57.3215,423.7145a4.3932,4.3932,0,0,0-4.3933,4.3974v21.6522a1.8356,1.8356,0,0,1-3.6712,0V429.8374a10.62,10.62,0,1,0-21.24,0v30.5448h8.7907V429.8374a1.8336,1.8336,0,1,1,3.6672,0v19.9267a10.62,10.62,0,0,0,21.24,0V428.1119a4.3932,4.3932,0,0,0-4.3933-4.3974" style="fill:#fff"/><path d="M213.0035,419.213a10.6256,10.6256,0,0,0-10.6222,10.6222v19.9269a1.8316,1.8316,0,1,1-3.6631,0V429.8352a10.6222,10.6222,0,1,0-21.2444,0v30.5491H186.26V429.8352a1.8356,1.8356,0,1,1,3.6712,0v19.9269a10.62,10.62,0,1,0,21.24,0V429.8352a1.8336,1.8336,0,1,1,3.6672,0v30.5491h8.7866V429.8352a10.6178,10.6178,0,0,0-10.6222-10.6222" style="fill:#fff"/><path d="M250.3737,419.213a10.5959,10.5959,0,0,0-10.5651,10.043l-.0571.2856v8.2807h8.7866v-7.9871a1.8336,1.8336,0,1,1,3.6671,0v19.9269a1.8336,1.8336,0,0,1-3.6671,0V442.958h-8.7866v6.8041a10.62,10.62,0,1,0,21.24,0v-20.22l-.0571-.2815a10.5927,10.5927,0,0,0-10.561-10.0471" style="fill:#fff"/><path d="M163.1889,406.5412a10.6177,10.6177,0,0,0-10.6222,10.622v32.6009a1.8336,1.8336,0,0,1-3.6671,0V429.8374a10.6222,10.6222,0,1,0-21.2444,0v19.9267a1.8316,1.8316,0,1,1-3.6631,0V429.8374a10.6222,10.6222,0,1,0-21.2444,0v19.9267a1.8357,1.8357,0,0,1-3.6713,0V429.8374a10.62,10.62,0,1,0-21.24,0v19.9267a1.8336,1.8336,0,0,1-3.6672,0v-38.83a4.3953,4.3953,0,0,0-8.7906,0v38.83a10.6222,10.6222,0,0,0,21.2444,0V429.8333a1.8336,1.8336,0,1,1,3.6671.0041v19.9267a10.6222,10.6222,0,0,0,21.2444,0V429.8333a1.8336,1.8336,0,1,1,3.6672.0041v19.9267a10.62,10.62,0,0,0,21.24,0h.0041V429.8333a1.8336,1.8336,0,1,1,3.6672.0041v19.9267a10.62,10.62,0,0,0,21.24,0V417.1632a1.8336,1.8336,0,1,1,3.6672,0v43.219h8.7906v-43.219a10.6228,10.6228,0,0,0-10.6222-10.622" style="fill:#fff"/><path d="M325.1333,406.5428a10.6063,10.6063,0,0,0-10.59,10.2795l-.0652.3386v26.376a8.04,8.04,0,0,1-5.5722,7.6239,16.6014,16.6014,0,0,0,1.905-7.6239V429.5412l-.0572-.2856a10.5765,10.5765,0,0,0-21.126,0l-.0571.2856v13.9957a16.674,16.674,0,0,0,1.9009,7.6239,8.0469,8.0469,0,0,1-5.5681-7.6239v-14.53a4.3933,4.3933,0,0,0-8.7866,0v20.7549a1.8357,1.8357,0,0,1-3.6713,0V410.936a4.3933,4.3933,0,0,0-8.7865,0v38.8257a10.58,10.58,0,0,0,18.7275,6.7918,16.4927,16.4927,0,0,0,16.8022,2.6066,16.7842,16.7842,0,0,0,23.0759-15.6232V417.3281l.0367-.11a1.8321,1.8321,0,1,1,3.6632-.0571v43.223H335.76v-43.223a10.62,10.62,0,0,0-10.6262-10.6181m-23.1086,36.9941a7.994,7.994,0,0,1-1.8356,5.05,7.9893,7.9893,0,0,1-1.8315-5.05V429.839a1.8336,1.8336,0,1,1,3.6671,0Z" style="fill:#fff"/><path d="M231.6906,406.5412a4.3869,4.3869,0,0,0-4.3932,4.3932V460.26h8.7865V410.9344a4.39,4.39,0,0,0-4.3933-4.3932" style="fill:#fff"/><path d="M110.7294,57.2893c4.43,1.6112,8.1992,4.483,12.568,6.1025-.8974-.3345-1.7867-4.2506-2.0478-5.1276-.4609-1.5582-.7465-3.1492-1.2768-4.6829-.4691-1.3379-.49-3.043-2.117-2.1416-1.0892.6037-1.7622,1.8274-2.6842,2.6311a30.1831,30.1831,0,0,1-4.4422,3.2185" style="fill:#fff"/><path d="M252.27,59.7588a18.0646,18.0646,0,0,1-5.205-2.4924,55.94,55.94,0,0,1-4.1893-3.7121c-.4855-.416-.2774-.8607-1.0769-.62-1.11.3345-1.5624,4.3606-1.9744,5.3722-.4161,1.02-2.3863,5.7925-3.6549,5.8821a58.4447,58.4447,0,0,0,6.2615-.8035c3.0431-.5466,6.4043-2.1742,9.839-3.6264" style="fill:#fff"/><path d="M150.9714,285.6c-.0694-4.8338-.6078-9.5861-.9342-14.3954-.1958-2.9942.8159-6.3554.22-9.3414a7.2443,7.2443,0,0,0-.4691-1.5255,4.27,4.27,0,0,0-2.9329-2.6964c-2.7453-.4324-2.937,1.6194-3.5693,3.5243a33.72,33.72,0,0,1-3.6264,7.0529,41.2487,41.2487,0,0,1-10.2877,11.2464c-6.6083,4.895-15.24,6.0943-23.4512,4.5932-2.8024,8.8028-6.7429,17.3772-10.096,26.0577a91,91,0,0,0,14.2812,1.4033c9.3373.1591,10.79,14.628,1.2605,14.6361A87.2032,87.2032,0,0,1,91.3052,324.25c-.461,1.9253-.7588,3.8833-1.0606,5.8413,6.91,9.8023,15.4927,17.2265,25.9273,21.2689A53.5276,53.5276,0,0,0,135.56,354.893c3.9242-.0041,8.7947.4527,12.107-2.0927,2.1824-1.6806,2.04-3.3245,2.1008-5.772.0816-3.5081.3386-7.0121.4773-10.52-.0694-7.6606-.2162-15.3254-.0123-22.9494.253-9.3168.8648-18.6338.7384-27.9587" style="fill:#fff"/><path d="M162.3486,338.3861c10.0511-4.56,21.946-8.8273,32.6008-6.6612-.1835-4.9808-.3671-9.9533-.3793-14.9136l.0122-1.342a22.1679,22.1679,0,0,1-9.59,2.9329c-7.4772.51-14.8279,1.0728-22.2438,2.2925l-.1836-.0122c.0734,6-.0081,11.8744-.2162,17.7036" style="fill:#fff"/><path d="M194.6431,307.1151c.02-1.88.0122-3.7691.0286-5.6741-.0735-1.8887-.1469-3.7773-.2326-5.6741-5.9352.6607-12.621-.2856-18.4379-.8485a32.5972,32.5972,0,0,1-12.5271-3.6672c-.2407,5.8536-.5467,11.7154-.7465,17.5853,9.276-3.1451,22.6639-5.6619,31.9155-1.7214" style="fill:#fff"/><path d="M195.3684,345.9909l-1.0769-.624c-9.6636-7.212-21.5259,1.2278-32.1929-.6568.2569.0449-.7343,9.0395-.8118,9.8839-.4,4.4789,1.9131,5.6047,5.8577,6.7958a51.0947,51.0947,0,0,0,14.8115,2.2762,46.0213,46.0213,0,0,0,8.97-.9382c6.1555-1.2319,4.5075-12.3354,4.4423-16.7369" style="fill:#fff"/><path d="M164.7623,264.1324c-1.1708.5832-1.5583,2.0233-1.6072,3.6793-.0694,2.3211.518,5.0746.5588,6.5187.1183,4.7154.0327,9.431-.13,14.1465,8.9823-2.9533,21.1791-6.2779,30.3777-3.2307-.1918-4.1689-.3019-8.3461-.5793-12.5109-.1264-1.8642-.6323-6.49-2.268-7.53-1.0728-.6813-2.8677-.1386-4.0139-.0571-1.7133.1265-3.4306.1958-5.148.1958a80.18,80.18,0,0,1-12.2212-.95c-1.6521-.253-3.4347-1.02-4.9684-.2611" style="fill:#fff"/><path d="M53.4455,97.1449c2.5046,1.3543,11.3727,4.6584,9.998-1.5828-.7138-3.2428-4.0751-5.417-6.09-7.7993-1.8152-2.1211-4.0465-3.8549-5.8944-5.9638-1.6725-1.9049-3.4184-3.7365-5.0827-5.6537-1.44-1.652-3.1042-3.41-4.6217-5.2744a67.9843,67.9843,0,0,0-4.5156,16.5085.571.571,0,0,1-.0775.0611c1.6479.9383,3.296,1.88,4.9684,2.8066,3.8589,2.1211,7.4241,4.7929,11.3157,6.8978" style="fill:#fff"/><path d="M33.5831,112.5373c4.944,1.0035,10.0226,1.5583,14.991,2.321,1.46.2326,3.8834.1347,4.6584-1.3869.7465-1.4929-.8647-2.9655-1.7377-4.0016-2.6923-3.1818-7.0447-4.3689-10.5855-6.3024-4.7278-2.5617-9.4759-5.0868-14.2037-7.6526a56.4831,56.4831,0,0,0-11.0219,13.6368c.6322.0938,1.2563.1958,1.8315.2652,5.4375.64,10.7242,2.0435,16.0679,3.1205" style="fill:#fff"/><path d="M56.2418,69.5905c4.6135,4.3728,9.2148,8.7621,13.551,13.4082,1.3543,1.4562,2.2354,3.553,4.4463,3.0594,4.3525-.979,2.35-4.5931.824-7.2814q-2.2089-3.8181-4.4381-7.6484c-1.93-3.3531-3.9038-6.6735-5.7639-10.0633-.9423-1.7174-2.0723-4.3974-.7751-6.1881a4.6946,4.6946,0,0,1,3.606-1.77l1.93.2815c4.124,1.5257,7.2936,6.9918,9.5452,10.4835,3.345,5.2133,6.8694,10.3123,10.251,15.4765,3.1165,4.7686,7.53,8.452,11.74,12.209,1.1381,1.0034,2.4965,1.7091,3.6672,2.6719,2.4027,1.97,4.9154,3.814,7.29,5.8454,5.6823,4.8827,10.4182,10.614,9.378,18.5073-.4323,3.3652-2.7412,6.0249-4.4177,8.8437-1.2075,2.0313-2.3292,4.0587-3.4224,6.1431a83.6711,83.6711,0,0,1,47.6733-32.8619,11.0014,11.0014,0,0,0,7.1672-6.543c3.6672-8.4642,12.6291-44.5528-10.818-49.7374-10.4427-2.3129-16.7043,6.8245-26.8941,6.38a19.2752,19.2752,0,0,1-8.3215-2.3333c1.7989,6.5226,4.5768,12.4415,9.6758,16.8512a52.5449,52.5449,0,0,0,10.7609.3017,12.3264,12.3264,0,0,0,6.3839-1.9131c.8975-.5955,2.1824-1.8968,3.1084-2.1824.6078-.1834,1.06.0694,1.1544,1.232.29,3.4877-6.437,9.219-9.1211,11.3931a41.2843,41.2843,0,0,1-13.3185,7.2039C118.6532,85.3687,101.77,79.58,94.68,70.19c-3.1084-4.1-1.9825-10.74,2.5862-13.392,5.3315-3.092,11.5971-4.2342,16.4635-8.2971,1.4033-1.1706,2.8025-2.2884,4.1853-3.4387a20.4936,20.4936,0,0,1-5.3886-9.5739,10.5486,10.5486,0,0,1,.02-5.262c.3916,5.6822,9.7329,3.1,13.0248,1.754,6.1229-2.4843,10.6385-7.1753,17.361-8.4644,8.06-1.5418,17.0306,1.1994,23.6511,5.9721-1.0361-6.6491,3.296-13.4451,6.4-19.47A50.4,50.4,0,0,0,176.8958.224c-10.7446,1.0687-21.04,5.2784-30.5694,12.4659-13.4327-3.1532-26.2822-2.5249-37.8059,2.5658-10.2917,4.532-18.6867,12.27-25.1685,22.4518-11.85,2.3619-22.0929,7.3833-30.0554,15.3459a51.9291,51.9291,0,0,0-6.1474,7.4731c.8077.665,1.5705,1.3379,2.2314,1.93,2.48,2.1864,4.4707,4.8706,6.8612,7.1345" style="fill:#fff"/><path d="M274.9324,123.8987c-5.3641,6.8489-11.87,13.6612-19.2088,18.4461a83.1218,83.1218,0,0,1,9.6146,34.6607c5.5151-7.9421,11.5155-15.2153,17.7281-22.7618,3.4306-4.1485,6.4614-3.1981,7.7627,1.5338,1.5256,5.5354-.5915,10.2713-2.5577,15.305,4.014-1.391,7.7954-4.3117,11.7848-6.0412,5.9434-2.5658,12.1845-4.7564,18.2421-7.0815,10.6875-4.12,21.9787-5.4946,33.331-5.2336,1.33.0367,2.6352.2448,3.9527.3916a74.7062,74.7062,0,0,0-4.589-7.0244c3.1531-13.4245,2.525-26.2821-2.5618-37.8017a55.4558,55.4558,0,0,0-17.6139-21.6483,80.7238,80.7238,0,0,1-1.02,14.163c-2.3659,14.4484-9.0436,36.81-25.605,41.2161-16.7,4.4095-27.2326-5.5518-29.26-18.1238" style="fill:#fff"/><path d="M194.87,21.9786a34.7671,34.7671,0,0,1,.4242,4.4789c5.2663-3.5488,12.2906-4.1444,18.3849-3.1409,8.4072,1.391,24.1243,16.2515,31.732,7.0773.9994-1.2115,1.8519-2.9859.4038-4.1974,5.1071.4447,6.6613,9.1986,5.5518,13.2573a9.4318,9.4318,0,0,1-2.57,4.222,15.1523,15.1523,0,0,1-4.1159,2.6923,34.5307,34.5307,0,0,0,7.11,5.9719,24.52,24.52,0,0,0,10.0919,3.3367,11.93,11.93,0,0,1,6.8367.5834c6.27,2.6515,7.2773,10.508,3.3694,14.9991-7.832,9.0028-25.1441,13.8326-37.2429,9.0762a39.9059,39.9059,0,0,1-14.061-9.3331c-.983-1.02-9.1047-12.005-6.2-12.18.9382-.0572,3.247,2.1782,4.1363,2.6636a24.5775,24.5775,0,0,0,5.0378,2.0192c.5914.1632,4.4259,1.338,4.8053.877a50.9968,50.9968,0,0,0,5.6782-7.93,45.7853,45.7853,0,0,0,3.455-8.1665c-.5547.053-1.138.1509-1.652.1509-7.5832.0163-13.9019-5.4172-21.7053-5.2825-4.532.0815-7.7464,1.8193-11.483,4.4014-7.44,5.14-11.7439,12.2294-11.76,21.4117-.0163,7.95,2.7086,15.5865,5.8945,22.7985.3426.7831.8648,1.856,1.3706,3.1532a10.1291,10.1291,0,0,0,6.6327,6.4573,83.5962,83.5962,0,0,1,44.1,30.6429c3.4673-.9913,6.9183-2.0193,10.2836-3.2838a60.1244,60.1244,0,0,0,15.2194-8.88l-.0326-1.2645c.0367,1.648-9.8145,2.5944-10.9893,2.5618a7.4122,7.4122,0,0,1-6.1025-2.6638,22.9771,22.9771,0,0,1-5.0786-9.9206,25.8263,25.8263,0,0,1-.5384-8.8313c1.13-10.0267,7.3588-12.6047,16.17-15.2317,12.5965-3.7488,24.8095-11.6542,29.0478-24.6627a32.4088,32.4088,0,0,0,.5385-16.08,65.53,65.53,0,0,0-21.326-6.7674c-7.2773-11.7154-16.8062-20.3674-28.538-24.9156-10.5-4.071-21.897-4.54-33.69-1.9132A58.1651,58.1651,0,0,0,184.8641,0c.4691.49.9178.979,1.3135,1.4521,5.0174,5.9925,7.2813,12.4825,8.6927,20.5265" style="fill:#fff"/><path d="M22.3376,191.01c1.4481,5.8292-.5425,8.7539-1.803,14.2649,2.2477.3793,4.5565-1.04,6.6246-1.8112a81.5117,81.5117,0,0,1,14.7055-4.23,14.6667,14.6667,0,0,0-.3753-2.6025c-.9668-7.2323-.204-14.5382,3.6957-20.8567a28.9746,28.9746,0,0,1,18.14-12.6211c9.7493-2.3578,20.3021-.979,28.6645,4.736a37.1147,37.1147,0,0,1,6.7265,6.1432,83.0525,83.0525,0,0,1,6.1392-24.74c-4.8216,3.9242-11.5441,5.8128-17.4018,6.906-2.7657.5221-27.0327-.1673-30.9324-.6772-3.655-.4608-9.2638,1.4278-12.103-1.4154-4.8623-4.8583,3.4918-9.8554,7.881-10.5651a18.82,18.82,0,0,1,5.3519.02,46.1274,46.1274,0,0,0,8.4113.4527,11.2226,11.2226,0,0,0,3.32-.5588c4.8135-1.7174-3.4836-7.6445-5.0418-8.73a63.46,63.46,0,0,0-10.4672-5.78c-5.3478-2.3741-11.1036-2.4393-16.6553-4.1241-5.8251-1.7621-12.0051-2.2231-17.72-4.3361-1.8438-.6853-5.2458-1.5828-7.6077-3.1247-3.5815,10.1082-3.9976,20.9956-1.4929,32.2623C3.6917,159.653,0,170.4547,0,181.7214a52.1325,52.1325,0,0,0,2.28,14.51A40.4882,40.4882,0,0,1,7.7668,185.23c1.9947-2.6271,3.8059-5.0175,7.4608-4.5443,5.4661.71,6.0168,5.9067,7.11,10.3245" style="fill:#fff"/><path d="M363.7684,183.3654c-.5629-.4651-1.1177-.9137-1.6316-1.2565a60.7885,60.7885,0,0,0-30.1248-9.5983c-12.931-.416-25.8946,3.2553-37.916,7.4894-5.96,2.1089-11.43,5.152-17.3161,7.4242-2.831,1.0809-6.7389,2.3945-9.7941,1.9539a5.1232,5.1232,0,0,1-1.7623-.6323,83.2694,83.2694,0,0,1-25.964,53.7636,15.843,15.843,0,1,1-22.1866,15.0277c.0285.93-9.2312,3.6427-10.32,3.9772-1.2034.3754-3.0553.7914-3.6631,2.0518-.6323,1.3013.4813,3.912.722,5.2744.8566,4.887,1.5052,9.8106,1.9784,14.7463.9463,9.839,1.1993,19.7187,1.1911,29.5945,0,1.2074-.0082,2.423-.0163,3.63-.0408,6.4615.2325,12.9148.5262,19.3639.1468,3.2837.3059,6.5635.4324,9.8513.0857,2.2109-.5915,6.0942,1.032,7.9136,1.15,1.289,2.937.363,4.1812-.2448.7424-.3672,3.8589-3.08,4.4463-2.941a61.4707,61.4707,0,0,0,30.8264-.2163c1.64-13.1471.8933-25.7192-3.2838-38.0751-2.9329-8.6683,10.4468-15.5254,17.1245-8.6479,5.6129,5.78,10.1693,12.5436,17.365,17.0633,1.97,1.24,4.0629,2.3415,6.1269,3.4754,9.635-2.6962,18.1157-7.216,24.8749-13.9752,3.0227-3.0268,3.0675-6.3962,3.5081-10.32.3712-3.3041.6-6.6327.93-9.941a68.3292,68.3292,0,0,0-.2651-11.8744c-.1836-2.729-.4-5.4743-.8158-8.187-.3141-2.15-.9138-4.2137-1.028-6.392-.1142-2.3211-1.5093-5.1765-.5262-7.314a7.1772,7.1772,0,0,1,5.78-3.5367c3.7814-.02,6.4,3.9691,9.0884,6.0413a26.8008,26.8008,0,0,0,13.0371,5.2541c.29.0244.5466-.0124.828-.0083a53.1975,53.1975,0,0,0,10.4428-16.586c4.071-10.5038,4.54-21.9093,1.9171-33.7021,6.38-9.5412,9.9125-19.7922,10.2551-30.447m-83.3417,17.1855a15.4269,15.4269,0,1,1-6.9183,20.6856,15.4165,15.4165,0,0,1,6.9183-20.6856m-12.7924,89.2567c-8.7906-.102-25.05,9.4881-31.271,14.7829-5.3315,4.536-9.7451,14.4975-17.8627,13.5511l-1.0035-.9056c-.9749-9.9613,10.5692-24.471,17.0061-32.1929,7.71-9.2394,21.4688-16.9775,33.5635-18.2258,17.9566-1.852,17.5,23.1779-.4324,22.99m52.0137-48.4771c-6.1351,9.59-15.5172,17.104-25.5642,22.2723-10.7446,5.4989-20.6285-9.3331-12.5476-17.6506,10.4346-10.7485,27.4284-14.6686,33.6043-29.3945,1.6113-3.863,2.2231-11.7277,5.2989-15.4641l1.803-1.5012c2.6514,2.1171,3.2674,7.9584,3.4714,11.1117.6078,9.6472-.7669,22.3457-6.0658,30.6264" style="fill:#fff"/><path d="M263.7024,331.168a57.8308,57.8308,0,0,1-6.286,15.9251A53.8278,53.8278,0,0,0,272.2728,336.1a48.0608,48.0608,0,0,1-8.57-4.9317" style="fill:#fff"/><path d="M113.8324,265.0008c4.1812-.6731,8.2685-2.7983,10.4468-6.0249,3.2226-4.7808,2.007-11.9193-2.1293-15.7742-2.1416-1.9948-4.6829-4.7441-7.6036-5.303a14.1964,14.1964,0,0,0-9.2026,1.6318c-4.72,2.5086-6.9632,7.8769-6.8979,12.9758.0652,5.5436,3.1736,10.6875,8.6764,12.2213a15.9754,15.9754,0,0,0,6.71.2732" style="fill:#fff"/><path d="M70.7412,180.8526c-4.377.3549-8.1339,2.7-11.1933,6.07-3.72,4.0955-4.793,9.6635-1.9253,14.5545,4.2505,7.265,12.3435,7.3383,19.3434,4.5932,4.2587-1.6725,7.9748-3.496,9.37-8.1788,1.1259-3.7692-.155-9.2068-2.7086-12.2336-2.5658-3.0307-6.747-4.5278-10.6181-4.8134a14.0164,14.0164,0,0,0-2.268.0082" style="fill:#fff"/><path d="M95.986,104.08c-2.9247,2.786-5.666,5.7189-8.5744,8.5377a74.659,74.659,0,0,0-7.93,9.0149c-2.1539,2.8881-4.5116,4.4667-3.5653,8.2155a2.238,2.238,0,0,0,2.1008,1.6032c5.5763.5262,9.3944-8.2971,11.7889-12.3355,2.4352-4.1077,4.3973-6.5594,8.6152-9.0435,2.0763-1.2319,7.5016-5.307,4.5075-8.138-1.9621-1.86-5.5314.8036-6.9428,2.1457" style="fill:#fff"/><path d="M285.0427,112.3142l.261.3426c13.62-6.0658,24.7852-16.8347,24.6016-32.8089-.049-3.9282-6.1433-3.9364-6.0943,0,.1468,12.5966-9.4107,24.9932-18.7683,32.4663" style="fill:#fff"/><path d="M53.2982,310.3776a55.5937,55.5937,0,0,0,24.9524,14.0855c.514-1.6236,1.0687-3.247,1.648-4.8584A27.9571,27.9571,0,0,1,68.742,306.0863a2.64,2.64,0,0,1,3.59-3.2715,99.3171,99.3171,0,0,0,12.4374,4.6544c1.0361-2.4434,2.0722-4.8583,3.08-7.2406a117.2336,117.2336,0,0,1,9.4392-18.8172,35.4407,35.4407,0,0,1-7.0121-4.0589c-9.1415-6.8448-14.0691-18.3563-10.663-29.5291,3.2062-10.5161,14.9992-25.01,27.355-29.2641A82.8354,82.8354,0,0,1,102.7909,208.5a29.1434,29.1434,0,0,1-9.3,9.0477,39.5415,39.5415,0,0,1-26.1639,5.5028,29.5813,29.5813,0,0,1-15.3785-7.4119c-3.3531-3.092-4.5442-7.5464-9.6554-7.522a29.7716,29.7716,0,0,0-10.561,2.5536c-2.5128,1.04-4.9073,2.2925-7.4119,3.3572-2.0885.8892-4.8991,1.4277-6.5512,2.88,2.5985-2.2761,10.9771,6.0005,11.8664,7.8932l.2406.51c1.3258,2.7209,2.9574,4.8869,1.2646,7.4976-1.2605,1.9458-4.1649,2.8758-6.335,2.9738-4.793.1917-9.3739-3.0472-13.3511-5.2989-.0776-.049-.1428-.09-.2244-.1387A54.6471,54.6471,0,0,0,15.4842,255.15c4.5483,10.3,12.2742,18.6949,22.464,25.1686,2.3537,11.85,7.3915,22.0888,15.35,30.0594m.7506-77.3a5.5169,5.5169,0,0,1,3.557.8158c3.092,1.8805,5.3274,6.4736,7.624,9.3291,2.3129,2.884,6.51,5.7352,7.881,9.0435,1.4563,3.4877-.8893,5.9883-4.3362,5.0255-2.5087-.7056-4.6829-3.2429-6.5348-5.14-3.9242-4.0548-11.14-9.9328-10.8384-16.072a2.9443,2.9443,0,0,1,2.6474-3.0022m-11.8011,8.1256c.8893-2.8594,3.5326-1.0891,5.0582.7507,1.6847,2.0313,2.0192,4.691,3.2633,6.9345a29.1736,29.1736,0,0,0,4.5524,6.2616,76.4362,76.4362,0,0,0,6.18,5.152c2.0478,1.66,3.6672,3.2143,2.9738,6.0127-.6078,2.472-3.0635,3.3327-5.4172,2.6555-2.9166-.8524-5.4416-3.9772-7.5873-6.31a53.5013,53.5013,0,0,1-5.0989-6.2983c-2.9371-4.4014-5.4335-10.2958-3.9242-15.1583M27.6238,254.46c-2.1987-3.0471-.4446-5.8659,2.986-6.539a7.923,7.923,0,0,1,5.0051.6405,4.7629,4.7629,0,0,1,2.2354,2.5862,31.1081,31.1081,0,0,0,1.5991,3.63,58.3723,58.3723,0,0,0,3.4469,5.5763c1.13,1.5951,1.9131,3.243,3.0716,4.8175,2.0518,2.7984,4.8787,5.1479,6.7429,8.0849,1.2319,1.9418-.82,4.1894-3.296,3.1125-5.1275-2.2272-8.6519-5.6211-12.0866-9.6105-3.4061-3.9569-6.7266-8.1829-9.7044-12.2988" style="fill:#fff"/><path d="M115.8436,494.0972a20.9712,20.9712,0,0,0,3.14,8.324l7.74-4.1613c.1457,9.4919.2192,17.67.2913,27.82a21.3787,21.3787,0,0,0,9.4934-.4383V485.92h-1.5342C131.3237,485.92,125.4826,488.9857,115.8436,494.0972Z" style="fill:#fff"/><path d="M158.4845,485.2627c-9.6376,0-15.333,5.1836-15.333,13.946,0,7.4487,4.9644,11.9748,13.5811,11.9748,1.3871,0,4.7453-1.2415,7.8857-3.4317-1.6062,7.8857-7.2282,10.5878-19.0574,11.3174a15.7184,15.7184,0,0,0,2.0446,8.2519c21.102-.95,26.87-14.4578,26.87-25.0456C174.4751,491.5421,168.5618,485.2627,158.4845,485.2627Zm.5118,18.2543c-3.6508,0-5.9146-2.0446-5.9146-5.2571a7.5771,7.5771,0,0,1,1.3137-4.5276,13.442,13.442,0,0,1,3.4316-.4382c4.6732,0,7.1561,3.14,7.23,8.9079A13.6684,13.6684,0,0,1,158.9963,503.517Z" style="fill:#fff"/><path d="M194.1871,485.2627c-9.6375,0-15.333,5.1836-15.333,13.946,0,7.4487,4.9644,11.9748,13.5811,11.9748,1.3871,0,4.7453-1.2415,7.8857-3.4317-1.6062,7.8857-7.2282,10.5878-19.0574,11.3174a15.7184,15.7184,0,0,0,2.0446,8.2519c21.102-.95,26.87-14.4578,26.87-25.0456C210.1777,491.5421,204.2644,485.2627,194.1871,485.2627Zm.5119,18.2543c-3.6508,0-5.9146-2.0446-5.9146-5.2571a7.5771,7.5771,0,0,1,1.3136-4.5276,13.442,13.442,0,0,1,3.4316-.4382c4.6732,0,7.1561,3.14,7.23,8.9079A13.668,13.668,0,0,1,194.699,503.517Z" style="fill:#fff"/><path d="M240.1127,504.32c3.5052-1.8254,6.2059-4.454,6.2059-8.9079,0-6.2795-5.1836-10.0774-13.9459-10.0774-9.7111,0-15.48,4.6732-15.48,11.4645,0,3.87,1.8254,6.7177,5.6954,8.7623-3.4317,1.6063-7.3017,5.0379-7.3017,10.0038,0,8.0313,8.3975,11.0982,16.4289,11.0982,8.1783,0,16.21-2.7742,16.21-12.0484C247.9248,510.1612,245.2963,506.73,240.1127,504.32Zm-13.1442-10.2229a14.6006,14.6006,0,0,1,4.6731-.73c3.214,0,5.1851,1.168,5.1851,3.2126,0,1.5341-1.0959,2.9933-4.454,4.5275l-1.6063-.6575c-3.6508-1.4606-4.3083-2.6286-4.3083-4.3084A3.689,3.689,0,0,1,226.9685,494.0972Zm10.4421,23.5849a11.9532,11.9532,0,0,1-5.4763,1.0223c-4.1613,0-6.5721-1.4606-6.5721-4.3084,0-2.2623,1.3886-3.9421,5.1115-5.4027,5.55,2.4094,7.6679,3.87,7.6679,6.3529A3.3775,3.3775,0,0,1,237.4106,517.6821Z" style="fill:#fff"/></svg>